<?xml version="1.0" encoding="UTF-8"?>
<svg version="1.1" xmlns="http://www.w3.org/2000/svg" width="16" height="16">
<path d="M0 0 C5.28 0 10.56 0 16 0 C16 5.28 16 10.56 16 16 C10.72 16 5.44 16 0 16 C0 10.72 0 5.44 0 0 Z " fill="#6B60E9" transform="translate(0,0)"/>
<path d="M0 0 C0 2.64 0 5.28 0 8 C-5.28 8 -10.56 8 -16 8 C-16 6.02 -16 4.04 -16 2 C-15.67 2.66 -15.34 3.32 -15 4 C-13.35 4 -11.7 4 -10 4 C-10 3.34 -10 2.68 -10 2 C-9.34 2 -8.68 2 -8 2 C-7.01 3.485 -7.01 3.485 -6 5 C-5.731875 4.360625 -5.46375 3.72125 -5.1875 3.0625 C-3.85281567 0.74436405 -2.85138334 0 0 0 Z " fill="#5956FA" transform="translate(16,8)"/>
<path d="M0 0 C0.66 0.33 1.32 0.66 2 1 C2.33 1.99 2.66 2.98 3 4 C3.66 4.33 4.32 4.66 5 5 C5 5.66 5 6.32 5 7 C4.01 7.495 4.01 7.495 3 8 C1.86649466 10.01669827 1.86649466 10.01669827 1 12 C-0.70884005 10.37660195 -2.37446717 8.70680947 -4 7 C-4 6.34 -4 5.68 -4 5 C-3.34 4.67 -2.68 4.34 -2 4 C-0.86649466 1.98330173 -0.86649466 1.98330173 0 0 Z " fill="#F7AE61" transform="translate(9,2)"/>
<path d="M0 0 C0.66 0.66 1.32 1.32 2 2 C1.34 2 0.68 2 0 2 C0.33 3.65 0.66 5.3 1 7 C0.01 7.33 -0.98 7.66 -2 8 C-2.66 7.67 -3.32 7.34 -4 7 C-4 6.34 -4 5.68 -4 5 C-3.34 4.67 -2.68 4.34 -2 4 C-0.86649466 1.98330173 -0.86649466 1.98330173 0 0 Z " fill="#E4A46E" transform="translate(9,2)"/>
</svg>
