<svg xmlns="http://www.w3.org/2000/svg" width="32" height="32" viewBox="0 0 32 32">
  <defs>
    <linearGradient id="neonGlow" x1="0%" y1="0%" x2="100%" y2="100%">
      <stop offset="0%" style="stop-color:#8A2BE2;stop-opacity:1" />
      <stop offset="100%" style="stop-color:#1E90FF;stop-opacity:1" />
    </linearGradient>
  </defs>
  
  <!-- AI Brain design -->
  <g fill="none" stroke="url(#neonGlow)" stroke-width="1.5" stroke-linecap="round">
    <!-- Brain outline -->
    <path d="M16 4 Q24 4 24 12 T16 20 Q8 20 8 12 T16 4" />
    
    <!-- Neural network connections -->
    <path d="M12 8 L20 8" />
    <path d="M12 12 L20 12" />
    <path d="M12 16 L20 16" />
    
    <!-- Connection nodes -->
    <circle cx="12" cy="8" r="1" fill="#fff" />
    <circle cx="20" cy="8" r="1" fill="#fff" />
    <circle cx="12" cy="12" r="1" fill="#fff" />
    <circle cx="20" cy="12" r="1" fill="#fff" />
    <circle cx="12" cy="16" r="1" fill="#fff" />
    <circle cx="20" cy="16" r="1" fill="#fff" />
    
    <!-- Circuit paths -->
    <path d="M8 24 Q16 28 24 24" />
    <path d="M16 20 L16 28" />
  </g>
</svg>